Coordinates
version=1
nRows=6
nColumns=63
inDegrees=yes

Units are S.I. units (second, meters, Newtons, ...)
If the header above contains a line with 'inDegrees', this indicates whether rotational values are in degrees (yes) or radians (no).

endheader
time	pelvis_tilt	pelvis_list	pelvis_rotation	pelvis_tx	pelvis_ty	pelvis_tz	hip_flexion_r	hip_adduction_r	hip_rotation_r	knee_angle_r	knee_angle_r_beta	ankle_angle_r	subtalar_angle_r	mtp_angle_r	hip_flexion_l	hip_adduction_l	hip_rotation_l	knee_angle_l	knee_angle_l_beta	ankle_angle_l	subtalar_angle_l	mtp_angle_l	L5_S1_Flex_Ext	L5_S1_Lat_Bending	L5_S1_axial_rotation	L4_L5_Flex_Ext	L4_L5_Lat_Bending	L4_L5_axial_rotation	L3_L4_Flex_Ext	L3_L4_Lat_Bending	L3_L4_axial_rotation	L2_L3_Flex_Ext	L2_L3_Lat_Bending	L2_L3_axial_rotation	L1_L2_Flex_Ext	L1_L2_Lat_Bending	L1_L2_axial_rotation	L1_T12_Flex_Ext	L1_T12_Lat_Bending	L1_T12_axial_rotation	Abs_r3	Abs_r2	Abs_r1	Abs_t1	Abs_t2	neck_flexion	neck_bending	neck_rotation	arm_flex_r	arm_add_r	arm_rot_r	elbow_flex_r	pro_sup_r	wrist_flex_r	wrist_dev_r	arm_flex_l	arm_add_l	arm_rot_l	elbow_flex_l	pro_sup_l	wrist_flex_l	wrist_dev_l
1.740741	-1.425273	1.629213	77.674547	0.202775	0.976837	0.489741	6.657665	-0.400523	3.448979	20.494068	0.357689	39.606805	-6.071915	0.000000	3.321658	0.193297	1.087981	14.289183	0.249393	41.313539	-9.706507	0.000000	-0.004567	-0.471907	0.405792	-0.008481	-0.627636	0.431154	-0.007503	-1.147395	0.431154	-0.005219	-1.147395	0.355068	-0.004241	-0.962313	0.329706	-0.002609	-0.730984	0.304344	-0.032620	-5.338307	2.256895	0.000000	0.000000	27.329799	14.073521	-7.585504	-0.756512	-31.846406	48.675777	7.432400	5.884015	1.415129	1.617306	-11.464700	-32.799384	50.994348	8.076655	32.013805	-7.936925	-3.341308
1.759259	-1.520559	1.718684	77.504331	0.200165	0.978883	0.487892	5.972701	-0.917483	2.417321	19.855713	0.346548	38.644685	-5.503857	0.000000	2.235906	0.548537	0.975302	12.391575	0.216274	40.401211	-9.467213	0.000000	0.017270	-0.365378	0.367970	0.032071	-0.485953	0.390968	0.028372	-0.888380	0.390968	0.019737	-0.888380	0.321974	0.016037	-0.745079	0.298976	0.009868	-0.565971	0.275978	0.123355	-4.133229	2.046540	0.000000	0.000000	27.679582	13.109255	-5.454797	-1.069492	-34.300450	48.749619	6.852946	5.672818	-1.162171	1.533758	-13.393891	-34.000086	46.809955	7.329805	32.479589	-11.071916	-1.719096
1.777778	-1.621953	1.789440	77.315157	0.197717	0.980819	0.486162	5.344772	-1.412648	1.412038	19.260213	0.336154	37.701752	-4.935237	0.000000	1.198190	0.885814	0.849007	10.565471	0.184402	39.468621	-9.261745	0.000000	0.036970	-0.261426	0.301794	0.068658	-0.347696	0.320657	0.060739	-0.635631	0.320657	0.042254	-0.635631	0.264070	0.034331	-0.533100	0.245208	0.021125	-0.404949	0.226346	0.264076	-2.957302	1.678490	0.000000	0.000000	27.960781	11.964446	-3.368568	-0.199459	-36.940527	55.021417	4.800962	2.417450	-3.833426	-0.043047	-15.506202	-35.297425	42.868887	6.367557	33.735045	-14.316400	0.328249
1.796296	-1.724943	1.805032	77.081744	0.195469	0.982384	0.484494	4.855237	-1.858783	0.503485	18.783579	0.327835	36.863338	-4.373969	0.000000	0.278905	1.191356	0.732560	8.891046	0.155178	38.587566	-9.138845	0.000000	0.056637	-0.155218	0.236387	0.105180	-0.206440	0.251161	0.093049	-0.377396	0.251161	0.064730	-0.377396	0.206838	0.052593	-0.316520	0.192064	0.032362	-0.240432	0.177290	0.404552	-1.755854	1.314711	0.000000	0.000000	28.185800	10.548538	-1.198832	0.512085	-39.225231	58.158698	3.552121	1.862171	-6.518057	-1.600257	-17.570202	-36.602130	39.164906	5.251290	36.020155	-17.305050	2.530260
1.814815	-1.827651	1.781434	76.792220	0.193496	0.983530	0.482895	4.506332	-2.245005	-0.276243	18.442552	0.321883	36.170300	-3.846115	0.000000	-0.511321	1.466501	0.651401	7.427376	0.129632	37.784151	-9.149561	0.000000	0.073153	-0.048788	0.168669	0.135852	-0.064889	0.179210	0.120183	-0.118624	0.179210	0.083606	-0.118624	0.147585	0.067930	-0.099489	0.137043	0.041800	-0.075573	0.126501	0.522523	-0.551904	0.938084	0.000000	0.000000	28.342343	8.936345	1.067029	1.115723	-41.118489	58.831720	2.961848	2.568563	-8.897955	-2.988545	-19.543593	-37.848018	35.762211	4.080742	39.686528	-19.713459	4.755405
1.833333	-1.920665	1.723726	76.448879	0.191784	0.984261	0.481352	4.300971	-2.562217	-0.903979	18.242972	0.318400	35.627581	-3.372908	0.000000	-1.161495	1.709822	0.618230	6.211528	0.108412	37.072515	-9.291395	0.000000	0.085026	0.058221	0.094853	0.157902	0.077434	0.100781	0.139689	0.141559	0.100781	0.097176	0.141559	0.082996	0.078955	0.118724	0.077068	0.048584	0.090184	0.071140	0.607332	0.658609	0.527543	0.000000	0.000000	28.442063	7.146720	3.429577	1.544088	-42.610933	57.055559	3.052524	4.195989	-10.965980	-4.071601	-21.299023	-39.006346	33.453553	3.013459	44.695818	-21.370188	6.663982
